<?xml version="1.0" encoding="UTF-8"?>
<svg id="Calque_2" data-name="Calque 2" xmlns="http://www.w3.org/2000/svg" viewBox="0 0 19.42 26.76">
  <defs>
    <style>
      .cls-1 {
        fill: #ff2400;
      }
    </style>
  </defs>
  <g id="Calque_1-2" data-name="Calque 1">
    <path class="cls-1" d="M18.43,26.76c-.54,0-1.13-.34-1.4-.82-.49-.86-1.35-1.51-2.32-1.72-.26-.06-.53-.08-.79-.08-.72,0-1.43.21-2.01.63-.56.41-1.15.47-1.44.47-2.97,0-6.51-4.36-8.47-8.67C-.77,10.47-.66,4.79,2.32,1.38c.8-.92,1.97-1.38,3.47-1.38,1.92,0,4.36.74,7.26,2.2,1.21.61,1.6,1.35.92,4.37-.44,1.94-.98,4.37.71,6.5,1.27,1.6.67,3.54-.23,5.92l-.2.53c-.42,1.13-.23,2.39.5,3.34.66.87,1.69,1.36,2.77,1.36.11,0,.22,0,.34-.02h.01c.5,0,.94.27,1.25.7.16.23.42.68.26,1.14-.09.27-.33.72-.94.72Z"/>
  </g>
</svg>